# xmcd
#
# Track frame offsets:
#	150
#	13975
#	26110
#	36397
#	48547
#	60580
#	76522
#	90837
#	102895
#	117892
#	139300
#	166230
#
# Disc length: 2439
#
# Revision: 2
# Processed by: cddbd v1.5.1PL0 Copyright (c) Steve Scherf et al.
# Submitted via: audiograbber 1.80.04
# Normalized: r1:DSETVAR1
#
DISCID=9309850c
DTITLE=Various Artist - Sounds of Soul
DYEAR=2000
DGENRE=Soul
TTITLE0=Jackson 5 - The love you save
TTITLE1=Smokey Robinson and The Miracles - I second that emotion
TTITLE2=Marvin Gaye and Tammi Terrell - Ain't nothing like the real thing, baby
TTITLE3=The four tops - I can't help myself (sugar pie, honey bunch)
TTITLE4=Martha Reeves and The Vandellas - Dancing in the street
TTITLE5=Aretha Franklin - I say a little prayer
TTITLE6=Marvin Gaye - Mercy Mercy me (The Ecology)
TTITLE7=The Supremes - Come see about me
TTITLE8=Rufus with Chaka Khan - Sweet Thing
TTITLE9=Billy Paul - Me and Mrs. Jones
TTITLE10=The Pointer Sisters - Yes we can can
TTITLE11=Cheryl Lynn - Got to be real
EXTD=
EXTT0=
EXTT1=
EXTT2=
EXTT3=
EXTT4=
EXTT5=
EXTT6=
EXTT7=
EXTT8=
EXTT9=
EXTT10=
EXTT11=
PLAYORDER=
